<mxfile host="app.diagrams.net" modified="2023-08-31T13:34:59.850Z" agent="Mozilla/5.0 (Windows NT 10.0; Win64; x64) AppleWebKit/537.36 (KHTML, like Gecko) Chrome/116.0.0.0 Safari/537.36" version="21.7.1" etag="Eetqp9xqOUSwJtANgPEi" type="github">
  <diagram name="Page-1" id="GGcb1D3rmr9JO7A2Lzuq">
    <mxGraphModel>
      <root>
        <mxCell id="0" />
        <mxCell id="1" parent="0" />
      </root>
    </mxGraphModel>
  </diagram>
</mxfile>
